<?xml version="1.0" encoding="utf-8"?>
<svg version="1.1" id="Layer_1"
xmlns="http://www.w3.org/2000/svg"
xmlns:xlink="http://www.w3.org/1999/xlink"
width="205px" height="35px"
xml:space="preserve">
<g id="PathID_1" transform="matrix(0.695236, 0, 0, 0.695236, 3.2, 30.55)" opacity="1">
<path style="fill:#333333;fill-opacity:1" d="M19.9 0.75Q11.55 0.75 6.6 -4.3Q1.7 -9.35 1.7 -18.55Q1.7 -27.4 6.6 -32.65Q11.55 -37.95 19.95 -37.95Q22.15 -37.95 23.9 -37.7Q25.7 -37.45 27.35 -37Q28.6 -36.6 30.1 -35.95L32.55 -34.85L32.55 -26L31.6 -26L29.85 -27.35Q28.85 -28.2 27.55 -29Q26.25 -29.75 24.7 -30.3Q23.15 -30.9 21.45 -30.9Q19.4 -30.9 17.7 -30.25Q16.05 -29.6 14.5 -28.05Q13.1 -26.6 12.2 -24.2Q11.35 -21.8 11.35 -18.5Q11.35 -15.05 12.25 -12.7Q13.2 -10.35 14.7 -8.9Q16.15 -7.5 17.9 -6.9Q19.7 -6.3 21.5 -6.3Q23.35 -6.3 25 -6.9Q26.7 -7.5 27.85 -8.2Q29.1 -9 30.05 -9.75L31.7 -11.2L32.55 -11.2L32.55 -2.45L30.15 -1.35Q28.8 -0.75 27.4 -0.3Q25.65 0.2 24.1 0.45Q22.6 0.75 19.9 0.75" />
</g>
<g id="PathID_2" transform="matrix(0.695236, 0, 0, 0.695236, 3.2, 30.55)" opacity="1">
</g>
<g id="PathID_3" transform="matrix(0.695236, 0, 0, 0.695236, 26.95, 30.55)" opacity="1">
<path style="fill:#333333;fill-opacity:1" d="M15.35 0.7Q11.1 0.7 7.85 -0.1Q4.6 -0.95 1.85 -2.15L1.85 -11.05L2.7 -11.05Q5.5 -8.65 8.85 -7.35Q12.25 -6.1 15.4 -6.1Q16.2 -6.1 17.5 -6.25Q18.85 -6.45 19.65 -6.8Q20.6 -7.25 21.3 -8Q22 -8.75 22 -10Q22 -11.4 20.85 -12.25Q19.75 -13.15 18.25 -13.55Q16.35 -14.05 14.15 -14.5Q12 -14.95 10.1 -15.6Q5.8 -17.15 3.9 -19.7Q2.05 -22.3 2.05 -26.15Q2.05 -31.4 6.45 -34.65Q10.9 -37.9 17.55 -37.9Q20.9 -37.9 24.15 -37.2Q27.45 -36.55 30.1 -35.4L30.1 -26.9L29.25 -26.9Q27.15 -28.65 24.15 -29.85Q21.15 -31.1 18 -31.1Q16.75 -31.1 15.75 -30.9Q14.8 -30.75 13.75 -30.25Q12.85 -29.85 12.2 -29.05Q11.6 -28.25 11.6 -27.3Q11.6 -25.85 12.6 -25Q13.6 -24.2 16.5 -23.5L20.15 -22.7Q21.9 -22.3 23.85 -21.6Q27.75 -20.2 29.65 -17.8Q31.55 -15.45 31.55 -11.6Q31.55 -6.05 27.15 -2.65Q22.8 0.7 15.35 0.7" />
</g>
<g id="PathID_4" transform="matrix(0.695236, 0, 0, 0.695236, 26.95, 30.55)" opacity="1">
</g>
<g id="PathID_5" transform="matrix(0.695236, 0, 0, 0.695236, 49.5, 30.55)" opacity="1">
<path style="fill:#333333;fill-opacity:1" d="M15.35 0.7Q11.1 0.7 7.85 -0.1Q4.6 -0.95 1.85 -2.15L1.85 -11.05L2.7 -11.05Q5.5 -8.65 8.85 -7.35Q12.25 -6.1 15.4 -6.1Q16.2 -6.1 17.5 -6.25Q18.85 -6.45 19.65 -6.8Q20.6 -7.25 21.3 -8Q22 -8.75 22 -10Q22 -11.4 20.85 -12.25Q19.75 -13.15 18.25 -13.55Q16.35 -14.05 14.15 -14.5Q12 -14.95 10.1 -15.6Q5.8 -17.15 3.9 -19.7Q2.05 -22.3 2.05 -26.15Q2.05 -31.4 6.45 -34.65Q10.9 -37.9 17.55 -37.9Q20.9 -37.9 24.15 -37.2Q27.45 -36.55 30.1 -35.4L30.1 -26.9L29.25 -26.9Q27.15 -28.65 24.15 -29.85Q21.15 -31.1 18 -31.1Q16.75 -31.1 15.75 -30.9Q14.8 -30.75 13.75 -30.25Q12.85 -29.85 12.2 -29.05Q11.6 -28.25 11.6 -27.3Q11.6 -25.85 12.6 -25Q13.6 -24.2 16.5 -23.5L20.15 -22.7Q21.9 -22.3 23.85 -21.6Q27.75 -20.2 29.65 -17.8Q31.55 -15.45 31.55 -11.6Q31.55 -6.05 27.15 -2.65Q22.8 0.7 15.35 0.7" />
</g>
<g id="PathID_6" transform="matrix(0.695236, 0, 0, 0.695236, 49.5, 30.55)" opacity="1">
</g>
<g id="PathID_7" transform="matrix(0.695236, 0, 0, 0.695236, 63.7, 30.55)" opacity="1">
<path style="fill:#0096F7;fill-opacity:1" d="M41.9 0L32.55 0L32.55 -24.65L25.75 -8.75L19.4 -8.75L12.65 -24.65L12.65 0L3.85 0L3.85 -37.25L14.6 -37.25L22.85 -18.85L31.05 -37.25L41.9 -37.25L41.9 0" />
</g>
<g id="PathID_8" transform="matrix(0.695236, 0, 0, 0.695236, 63.7, 30.55)" opacity="1">
</g>
<g id="PathID_9" transform="matrix(0.695236, 0, 0, 0.695236, 95.5, 30.55)" opacity="1">
<path style="fill:#0096F7;fill-opacity:1" d="M12.1 0L3.35 0L3.35 -28.1L12.1 -28.1L12.1 0M12.35 -32.1L3.1 -32.1L3.1 -38.95L12.35 -38.95L12.35 -32.1" />
</g>
<g id="PathID_10" transform="matrix(0.695236, 0, 0, 0.695236, 95.5, 30.55)" opacity="1">
</g>
<g id="PathID_11" transform="matrix(0.695236, 0, 0, 0.695236, 106.25, 30.55)" opacity="1">
<path style="fill:#0096F7;fill-opacity:1" d="M29.65 0L20.9 0L20.9 -13.9Q20.9 -15.6 20.75 -17.25Q20.6 -18.95 20.2 -19.75Q19.75 -20.7 18.9 -21.1Q18.05 -21.55 16.65 -21.55Q15.55 -21.55 14.45 -21.15Q13.35 -20.75 12.1 -19.85L12.1 0L3.35 0L3.35 -28.1L12.1 -28.1L12.1 -24.95Q14.25 -26.8 16.25 -27.8Q18.3 -28.85 20.8 -28.85Q25.1 -28.85 27.35 -26.1Q29.65 -23.4 29.65 -18.25L29.65 0" />
</g>
<g id="PathID_12" transform="matrix(0.695236, 0, 0, 0.695236, 106.25, 30.55)" opacity="1">
</g>
<g id="PathID_13" transform="matrix(0.695236, 0, 0, 0.695236, 129.05, 30.55)" opacity="1">
<path style="fill:#0096F7;fill-opacity:1" d="M12.1 0L3.35 0L3.35 -28.1L12.1 -28.1L12.1 0M12.35 -32.1L3.1 -32.1L3.1 -38.95L12.35 -38.95L12.35 -32.1" />
</g>
<g id="PathID_14" transform="matrix(0.695236, 0, 0, 0.695236, 129.05, 30.55)" opacity="1">
</g>
<g id="PathID_15" transform="matrix(0.695236, 0, 0, 0.695236, 139.75, 30.55)" opacity="1">
<path style="fill:#0096F7;fill-opacity:1" d="M21.35 -32.25L20.65 -32.25L19.05 -32.6Q18 -32.85 17.05 -32.85Q14.4 -32.85 13.45 -31.85Q12.5 -30.9 12.5 -28.3L12.5 -28.1L19.45 -28.1L19.45 -22L12.8 -22L12.8 0L4.05 0L4.05 -22L0.55 -22L0.55 -28.1L4.05 -28.1L4.05 -28.85Q4.05 -34 6.75 -36.55Q9.45 -39.15 14.9 -39.15Q16.8 -39.15 18.45 -39Q20.1 -38.85 21.35 -38.6L21.35 -32.25" />
</g>
<g id="PathID_16" transform="matrix(0.695236, 0, 0, 0.695236, 139.75, 30.55)" opacity="1">
</g>
<g id="PathID_17" transform="matrix(0.695236, 0, 0, 0.695236, 153.35, 30.55)" opacity="1">
<path style="fill:#0096F7;fill-opacity:1" d="M12.1 0L3.35 0L3.35 -28.1L12.1 -28.1L12.1 0M12.35 -32.1L3.1 -32.1L3.1 -38.95L12.35 -38.95L12.35 -32.1" />
</g>
<g id="PathID_18" transform="matrix(0.695236, 0, 0, 0.695236, 153.35, 30.55)" opacity="1">
</g>
<g id="PathID_19" transform="matrix(0.695236, 0, 0, 0.695236, 164.1, 30.55)" opacity="1">
<path style="fill:#0096F7;fill-opacity:1" d="M17.7 0.75Q9.75 0.75 5.5 -3.05Q1.3 -6.85 1.3 -13.9Q1.3 -20.75 5.25 -24.85Q9.2 -29 16.3 -29Q22.75 -29 26 -25.5Q29.25 -22 29.25 -15.55L29.25 -12.4L10.05 -12.4Q10.15 -10.4 10.85 -9.05Q11.55 -7.75 12.7 -7Q13.85 -6.2 15.35 -5.85Q16.85 -5.55 18.6 -5.55Q20.15 -5.55 21.6 -5.85Q23.1 -6.2 24.3 -6.75Q25.4 -7.25 26.3 -7.8L27.8 -8.8L28.75 -8.8L28.75 -1.55L26.75 -0.75Q25.9 -0.4 24.35 -0.05Q22.9 0.35 21.4 0.55Q19.9 0.75 17.7 0.75M20.6 -17.7Q20.5 -20.45 19.3 -21.9Q18.1 -23.4 15.6 -23.4Q13.05 -23.4 11.6 -21.85Q10.15 -20.3 10 -17.7L20.6 -17.7" />
</g>
<g id="PathID_20" transform="matrix(0.695236, 0, 0, 0.695236, 164.1, 30.55)" opacity="1">
</g>
<g id="PathID_21" transform="matrix(0.695236, 0, 0, 0.695236, 185.2, 30.55)" opacity="1">
<path style="fill:#0096F7;fill-opacity:1" d="M22.2 -19.8L21.45 -19.8Q20.95 -19.95 20 -20.05Q19.05 -20.15 17.9 -20.15Q16.55 -20.15 15 -19.75Q13.5 -19.35 12.1 -18.8L12.1 0L3.35 0L3.35 -28.1L12.1 -28.1L12.1 -24.05L13.75 -25.4Q14.8 -26.25 15.7 -26.75Q16.65 -27.35 17.9 -27.75Q19.15 -28.2 20.3 -28.2L21.2 -28.15L22.2 -28.1L22.2 -19.8" />
</g>
<g id="PathID_22" transform="matrix(0.695236, 0, 0, 0.695236, 185.2, 30.55)" opacity="1">
</g>
</svg>
