<?xml version="1.0" encoding="utf-8"?>
<!DOCTYPE svg PUBLIC "-//W3C//DTD SVG 1.1//EN" "http://www.w3.org/Graphics/SVG/1.1/DTD/svg11.dtd">
<svg version="1.1" id="Layer_1" xmlns="http://www.w3.org/2000/svg" xmlns:xlink="http://www.w3.org/1999/xlink" x="0px" y="0px"
	 width="370px" height="329px" viewBox="0 0 370 329" enable-background="new 0 0 370 329" xml:space="preserve">
<path fill="#ff4c2e" d="M121.309,47.783c3.777,0,6.839-3.062,6.839-6.839c0-3.777-3.062-6.839-6.839-6.839s-6.839,3.062-6.839,6.839
	C114.47,44.722,117.532,47.783,121.309,47.783z M121.309,38.665c1.259,0,2.28,1.021,2.28,2.28s-1.021,2.28-2.28,2.28
	c-1.259,0-2.28-1.021-2.28-2.28S120.05,38.665,121.309,38.665z"/>
<circle fill="#ff4c2e" cx="139.545" cy="40.945" r="4.559"/>
<circle fill="#ff4c2e" cx="103.073" cy="40.945" r="4.559"/>
<path fill="#ff4c2e" d="M185.136,102.492c-36.51,0-66.107,29.597-66.107,66.107s29.597,66.107,66.107,66.107
	s66.107-29.597,66.107-66.107C251.218,132.1,221.635,102.518,185.136,102.492z M185.136,225.588
	c-31.474,0-56.989-25.515-56.989-56.989s25.515-56.989,56.989-56.989s56.989,25.515,56.989,56.989
	C242.074,200.052,216.589,225.537,185.136,225.588z"/>
<path fill="#ff4c2e" d="M322.82,275.92c-12.358-20.521-29.345-37.867-49.603-50.651c-3.189-2.005-7.284-1.842-10.304,0.41l-7.158-6.93c27.741-38.821,18.759-92.781-20.062-120.522c-10.952-7.826-23.582-12.985-36.881-15.065V40.945c0-12.59-10.206-22.795-22.795-22.795H66.6c-12.59,0-22.795,10.206-22.795,22.795v18.236c-2.518,0-4.559,2.041-4.559,4.559v18.236
	c0,2.518,2.041,4.559,4.559,4.559v9.118c-2.518,0-4.559,2.041-4.559,4.559v18.236c0,2.518,2.041,4.559,4.559,4.559v164.127
	c0,12.59,10.206,22.795,22.795,22.795h109.418c12.59,0,22.795-10.206,22.795-22.795v-33.099
	c15.248-2.422,29.571-8.876,41.488-18.692l6.474,6.474c-2.252,3.02-2.415,7.114-0.41,10.304
	c12.785,20.258,30.131,37.245,50.651,49.603l2.872,2.872c7.126,7.126,18.679,7.126,25.804,0c7.126-7.126,7.126-18.679,0-25.804
L322.82,275.92zM313.474,278.017l-7.112,7.158l-7.249,7.203c-3.283-2.097-6.428-4.331-9.483-6.611l8.571-8.571c0.894-0.894,0.894-2.343,0-3.237c-0.894-0.894-2.343-0.894-3.237,0l-9.118,9.118c-2.371-1.915-4.559-3.921-6.93-5.972l19.057-19.011C303.698,264.281,308.884,270.947,313.474,278.017zM262.64,168.599c-0.011,39.462-29.67,72.616-68.888,77.003h-2.006c-2.052,0.501-4.377,0.501-6.611,0.501c-42.804,0-77.504-34.7-77.504-77.504s34.7-77.504,77.504-77.504c2.234,0,4.559,0,6.611,0.319h2.006C233.039,95.809,262.723,129.067,262.64,168.599z M66.6,27.268h109.418c6.746-0.094,12.553,4.745,13.677,11.398h-13.677c-5.965,0.077-11.576,2.841-15.273,7.522c-2.891,3.771-7.331,6.033-12.082,6.155H93.954c-4.75-0.121-9.191-2.384-12.082-6.155c-3.697-4.682-9.308-7.445-15.273-7.522H53.151C54.261,32.098,59.94,27.285,66.6,27.268zM189.695,255.222v31.914c0,7.554-6.124,13.677-13.677,13.677H66.6c-7.554,0-13.677-6.124-13.677-13.677V43.224H66.6c4.75,0.121,9.191,2.384,12.082,6.155c3.697,4.682,9.308,7.445,15.273,7.522h54.709c5.965-0.077,11.576-2.841,15.273-7.522c2.891-3.771,7.331-6.033,12.082-6.155h13.677v38.752h-4.559c-30.725,0.052-59.124,16.377-74.632,42.901l-16.549-11.899c4.434-7.499,1.95-17.173-5.549-21.607
	c-7.499-4.434-17.173-1.95-21.607,5.549s-1.95,17.173,5.549,21.607c6,3.548,13.616,2.737,18.735-1.993l17.279,12.31
	c-15.671,30.177-12.097,66.752,9.118,93.324l-21.017,14.817c-2.956,2.104-4.734,5.49-4.787,9.118v11.489
	c-8.722,1.259-14.773,9.35-13.514,18.073c1.259,8.722,9.35,14.773,18.073,13.514c8.722-1.259,14.773-9.35,13.514-18.073
	c-1.011-7.002-6.511-12.503-13.514-13.514v-11.489c-0.005-2.211,1.067-4.286,2.872-5.562l21.017-15.045
	c16.359,18.835,40.065,29.674,65.012,29.725H189.695z M80.277,116.17c-6.295,0-11.398-5.103-11.398-11.398
	c0-6.295,5.103-11.398,11.398-11.398s11.398,5.103,11.398,11.398C91.675,111.067,86.572,116.17,80.277,116.17z M93.954,262.06
	c6.295,0,11.398,5.103,11.398,11.398c0,6.295-5.103,11.398-11.398,11.398s-11.398-5.103-11.398-11.398
	C82.557,267.163,87.66,262.06,93.954,262.06z M253.021,222.26l6.565,6.565l-9.665,9.665l-6.246-6.064
	C247.052,229.288,250.177,225.889,253.021,222.26z M254.115,247.198l14.224-14.224c9.712,6.161,18.663,13.445,26.671,21.701
	l-19.239,19.239C267.515,265.901,260.245,256.933,254.115,247.198z M319.219,298.123c-3.556,3.535-9.3,3.535-12.857,0l12.857-12.857
	C322.754,288.822,322.754,294.566,319.219,298.123z"/>
<path fill="#ff4c2e" d="M190.744,132.126c-2.375-3.097-6.811-3.682-9.908-1.308c-0.491,0.377-0.931,0.816-1.308,1.308l-33.418,48.372c-3.097,4.471-1.983,10.606,2.487,13.703c1.64,1.136,3.587,1.747,5.582,1.753h61.912c5.439-0.014,9.836-4.434,9.822-9.873c-0.005-1.995-0.616-3.942-1.753-5.582L190.744,132.126z M216.73,186.334c-0.11,0.253-0.362,0.415-0.638,0.41H154.18c-0.276,0.005-0.528-0.157-0.638-0.41c-0.13-0.226-0.13-0.504,0-0.729l31.549-45.591l31.549,45.591c0.197,0.228,0.233,0.555,0.091,0.821V186.334z"/>
<path fill="#ff4c2e" d="M185.136,152.642c-1.259,0-2.28,1.021-2.28,2.28v13.677c0,1.259,1.021,2.28,2.28,2.28s2.28-1.021,2.28-2.28
	v-13.677C187.416,153.663,186.395,152.642,185.136,152.642z"/>
<path fill="#ff4c2e" d="M186.002,175.62c-0.555-0.228-1.177-0.228-1.732,0c-0.549,0.243-0.988,0.682-1.231,1.231
	c-0.065,0.285-0.065,0.581,0,0.866c-0.007,0.605,0.241,1.184,0.684,1.596c0.193,0.231,0.445,0.404,0.729,0.502
	c0.552,0.244,1.181,0.244,1.732,0c0.284-0.097,0.537-0.271,0.729-0.502c0.881-0.827,0.925-2.212,0.098-3.093
	c-0.032-0.034-0.064-0.066-0.098-0.098C186.673,175.86,186.353,175.684,186.002,175.62z"/>
<path fill="#ff4c2e" d="M238.249,79.013c0.827,0.881,2.212,0.925,3.093,0.098c0.034-0.032,0.066-0.064,0.098-0.098l9.118-9.118
	c0.881-0.881,0.881-2.31,0-3.191c-0.881-0.881-2.31-0.881-3.191,0l0,0l-9.118,9.118c-0.881,0.827-0.925,2.212-0.098,3.093
	C238.183,78.949,238.216,78.982,238.249,79.013z"/>
<path fill="#ff4c2e" d="M261.637,79.925l-9.118,4.559c-1.133,0.549-1.607,1.912-1.058,3.045c0.382,0.79,1.184,1.29,2.061,1.286
	c0.347-0.005,0.688-0.082,1.003-0.228l9.118-4.559c1.133-0.554,1.603-1.922,1.049-3.055
	C264.138,79.841,262.771,79.371,261.637,79.925C261.637,79.925,261.637,79.925,261.637,79.925z"/>
<path fill="#ff4c2e" d="M233.006,68.299v-9.118c0-1.259-1.021-2.28-2.28-2.28s-2.28,1.021-2.28,2.28v9.118
	c0,1.259,1.021,2.28,2.28,2.28S233.006,69.558,233.006,68.299z"/>
</svg>
