<svg width="87" height="35" xmlns="http://www.w3.org/2000/svg">

 <g>
  <title>background</title>
  <rect fill="none" id="canvas_background" height="37" width="89" y="-1" x="-1"/>
 </g>
 <g>
  <title>Layer 1</title>
  <path stroke="null" id="svg_3" fill="#21b2d1" d="m10.822084,24.362876c0,1.089795 0.861765,1.973373 1.924656,1.973373l11.547933,0l5.773967,5.920118l0,-5.920118l1.924656,0c1.062891,0 1.924656,-0.883578 1.924656,-1.973373l0,-15.786981c0,-1.089795 -0.861765,-1.973373 -1.924656,-1.973373l-19.246555,0c-1.062891,0 -1.924656,0.883578 -1.924656,1.973373l0,15.786981z"/>
  <path stroke="null" id="svg_4" fill="#F0F1F1" d="m26.219328,20.416131c0,1.089795 -0.861765,1.973373 -1.924656,1.973373l-11.547933,0l-5.773967,5.920118l0,-5.920118l-1.924656,0c-1.062891,0 -1.924656,-0.883578 -1.924656,-1.973373l0,-15.786981c0,-1.089795 0.861765,-1.973373 1.924656,-1.973373l19.246555,0c1.062891,0 1.924656,0.883578 1.924656,1.973373l0,15.786981z"/>
  <path stroke="null" id="svg_5" fill="#FFFFFF" d="m25.899354,3.542809c-0.344032,-0.533797 -0.933458,-0.887031 -1.604682,-0.887031l-19.246555,0c-1.062891,0 -1.924656,0.883578 -1.924656,1.973373l0,15.786981c0,1.089795 0.861765,1.973373 1.924656,1.973373l1.924656,0l0,0.559451l18.926581,-19.406146z"/>
  <circle stroke="null" id="svg_6" fill="#21b2d1" r="1.783742" cy="12.522641" cx="8.897428"/>
  <circle stroke="null" id="svg_7" fill="#21B2D1" r="1.783742" cy="12.522641" cx="14.671395"/>
  <circle stroke="null" id="svg_8" fill="#21B2D1" r="1.783742" cy="12.522641" cx="20.445361"/>
  <text stroke="null" transform="matrix(0.6806711554527283,0,0,0.6795139025606431,34.46205602511964,10.088296359066737) " xml:space="preserve" text-anchor="start" font-family="'Trebuchet MS', Gadget, sans-serif" font-size="24" id="svg_33" y="18.560017" x="2.809708" fill-opacity="null" stroke-opacity="null" stroke-width="0" fill="#21b2d1">Juggru</text>
 </g>
</svg>