<svg width="35" height="35" xmlns="http://www.w3.org/2000/svg">
 <title/>
 <desc/>

 <g>
  <title>background</title>
  <rect fill="none" id="canvas_background" height="37" width="37" y="-1" x="-1"/>
 </g>
 <g>
  <title>Layer 1</title>
  <path fill="#5656ff" stroke="null" id="Shape" d="m31.707288,0l-28.184256,0c-1.937668,0 -3.523032,1.575335 -3.523032,3.500744l0,31.506693l7.046064,-7.001487l24.661224,0c1.937668,0 3.523032,-1.575335 3.523032,-3.500744l0,-21.004462c0,-1.925409 -1.585364,-3.500744 -3.523032,-3.500744l0,0zm-24.661224,12.252603l21.138192,0l0,3.500744l-21.138192,0l0,-3.500744l0,0zm14.092128,8.751859l-14.092128,0l0,-3.500744l14.092128,0l0,3.500744l0,0zm7.046064,-10.502231l-21.138192,0l0,-3.500744l21.138192,0l0,3.500744l0,0z"/>
 </g>
</svg>
