<?xml version="1.0" encoding="utf-8"?>
<!DOCTYPE svg PUBLIC "-//W3C//DTD SVG 1.1//EN" "http://www.w3.org/Graphics/SVG/1.1/DTD/svg11.dtd">
<svg version="1.1" id="Layer_1" xmlns="http://www.w3.org/2000/svg" xmlns:xlink="http://www.w3.org/1999/xlink" x="0px" y="0px"
	 width="237px" height="56px" viewBox="0 0 237 56" enable-background="new 0 0 237 56" xml:space="preserve">
<g id="PathID_1" transform="matrix(0.267379, 0, 0, 0.266314, 4.45, 7.6)">
	<path fill="#003F48" d="M153.74,13.755v70.05l-10,9.9l-60-59.95h-10l-59.95,59.95l-10.05-9.9v-70.05l10.05-10h129.95L153.74,13.755
		 M83.74,63.755l70,70v10l-10,10H13.79l-10.05-10v-10l70-70H83.74"/>
</g>
<g id="PathID_2" transform="matrix(0.267379, 0, 0, 0.266314, 4.45, 7.6)">
</g>
<g id="PathID_3" transform="matrix(0.834989, 0, 0, 0.989053, 52.45, 45.5)">
	<path fill="#2B2B2B" d="M28.348-16.889c-0.9,1.133-2.233,2.033-4,2.7c-1.767,0.667-3.833,1-6.2,1h-5.9v14.2h-7.25v-35.7h13.15
		c4.133,0,7.317,1.033,9.55,3.1c2.267,2.067,3.4,4.5,3.4,7.3S30.181-19.022,28.348-16.889 M12.248-18.739h5.9
		c1.833,0,3.217-0.467,4.15-1.4c0.967-0.933,1.45-2.2,1.45-3.8c0-1.6-0.483-2.867-1.45-3.8c-0.933-0.967-2.317-1.45-4.15-1.45h-5.9
		V-18.739"/>
</g>
<g id="PathID_4" transform="matrix(0.834989, 0, 0, 0.989053, 52.45, 45.5)">
</g>
<g id="PathID_5" transform="matrix(0.834989, 0, 0, 0.989053, 76.95, 45.5)">
	<path fill="#2B2B2B" d="M8.298-3.839c-3.533-3.433-5.3-7.8-5.3-13.1c0-5.3,1.767-9.667,5.3-13.1c3.533-3.433,7.867-5.15,13-5.15
		c3.9,0,7.35,0.983,10.35,2.95c3.033,1.967,5.2,4.75,6.5,8.35h-8.65c-1.6-3.133-4.333-4.7-8.2-4.7c-3.233,0-5.867,1.067-7.9,3.2
		s-3.05,4.967-3.05,8.5s1.017,6.367,3.05,8.5s4.667,3.2,7.9,3.2c3.833,0,6.567-1.583,8.2-4.75h8.65c-1.3,3.6-3.467,6.383-6.5,8.35
		c-3,1.967-6.45,2.95-10.35,2.95C16.131,1.361,11.798-0.372,8.298-3.839"/>
</g>
<g id="PathID_6" transform="matrix(0.834989, 0, 0, 0.989053, 76.95, 45.5)">
</g>
<g id="PathID_7" transform="matrix(0.834989, 0, 0, 0.989053, 118.9, 45.5)">
	<path fill="#2B2B2B" d="M44.998-34.689h7.75l-10.35,35.7h-8.2l-6.9-24.9l-7.15,24.9h-8.15l-10.15-35.7h7.65l6.9,27.6l7.2-27.6h8.15
		l6.8,27.35L44.998-34.689"/>
</g>
<g id="PathID_8" transform="matrix(0.834989, 0, 0, 0.989053, 118.9, 45.5)">
</g>
<g id="PathID_9" transform="matrix(0.834989, 0, 0, 0.989053, 160.65, 45.5)">
	<path fill="#2B2B2B" d="M25.648-34.789v5.5h-13.4v9.4h11.85v5.5h-11.85v9.9h13.4v5.5H4.998v-35.8H25.648"/>
</g>
<g id="PathID_10" transform="matrix(0.834989, 0, 0, 0.989053, 160.65, 45.5)">
</g>
<g id="PathID_11" transform="matrix(0.834989, 0, 0, 0.989053, 182.2, 45.5)">
	<path fill="#2B2B2B" d="M25.648-34.789v5.5h-13.4v9.4h11.85v5.5h-11.85v9.9h13.4v5.5H4.998v-35.8H25.648"/>
</g>
<g id="PathID_12" transform="matrix(0.834989, 0, 0, 0.989053, 182.2, 45.5)">
</g>
<g id="PathID_13" transform="matrix(0.834989, 0, 0, 0.989053, 203.75, 45.5)">
	<path fill="#2B2B2B" d="M12.248,1.011h-7.25v-35.7h7.25v15.95l12.9-15.95h9.4l-15.5,17.9l15.5,17.8h-9.35l-12.95-15.85V1.011"/>
</g>
<g id="PathID_14" transform="matrix(0.834989, 0, 0, 0.989053, 203.75, 45.5)">
</g>
</svg>
